# xmcd
#
# Track frame offsets: 
#        150
#        26663
#        52804
#        84251
#        115029
#        143483
#        166188
#        192787
#        223058
#        251450
#
# Disc length: 3776 seconds
#
# Revision: 1
# Processed by: cddbd v1.5.2PL0 Copyright (c) Steve Scherf et al.
# Submitted via: ExactAudioCopy v0.99pb4
#
DISCID=760ebe0a
DTITLE=Various Artist - Bootleggers  Volume Two
DYEAR=1999
DGENRE=Drum and Bass
TTITLE0=DJ Reality - Descent 
TTITLE1=Nino Brown - Activate
TTITLE2=DJ Ben - Like
TTITLE3=DJ Reality - Music Maker
TTITLE4=Stakka and K-Tee - Motive
TTITLE5=Nino Brown - Signal
TTITLE6=DJ Reality - Methods
TTITLE7=Facs - Octane
TTITLE8=DJ Reality - Raw Nerve
TTITLE9=Stakka and K-Tee - Solar Reaction
EXTD=
EXTT0=
EXTT1=
EXTT2=
EXTT3=
EXTT4=
EXTT5=
EXTT6=
EXTT7=
EXTT8=
EXTT9=
PLAYORDER=
